<?xml version="1.0" encoding="utf-8" ?>
<svg baseProfile="full" height="36" version="1.1" width="36" xmlns="http://www.w3.org/2000/svg" xmlns:ev="http://www.w3.org/2001/xml-events" xmlns:xlink="http://www.w3.org/1999/xlink"><defs /><rect fill="rgb(251,242,75)" height="1" width="1" x="9" y="0" /><rect fill="rgb(251,242,75)" height="1" width="1" x="10" y="0" /><rect fill="rgb(251,242,75)" height="1" width="1" x="11" y="0" /><rect fill="rgb(251,242,75)" height="1" width="1" x="12" y="0" /><rect fill="rgb(251,242,75)" height="1" width="1" x="13" y="0" /><rect fill="rgb(251,242,75)" height="1" width="1" x="14" y="0" /><rect fill="rgb(251,242,75)" height="1" width="1" x="7" y="1" /><rect fill="rgb(251,242,75)" height="1" width="1" x="8" y="1" /><rect fill="rgb(251,242,75)" height="1" width="1" x="9" y="1" /><rect fill="rgb(251,242,75)" height="1" width="1" x="10" y="1" /><rect fill="rgb(251,242,75)" height="1" width="1" x="11" y="1" /><rect fill="rgb(251,242,75)" height="1" width="1" x="12" y="1" /><rect fill="rgb(251,242,75)" height="1" width="1" x="13" y="1" /><rect fill="rgb(251,242,75)" height="1" width="1" x="14" y="1" /><rect fill="rgb(251,242,75)" height="1" width="1" x="15" y="1" /><rect fill="rgb(251,242,75)" height="1" width="1" x="16" y="1" /><rect fill="rgb(251,242,75)" height="1" width="1" x="7" y="2" /><rect fill="rgb(251,242,75)" height="1" width="1" x="8" y="2" /><rect fill="rgb(251,242,75)" height="1" width="1" x="9" y="2" /><rect fill="rgb(251,242,75)" height="1" width="1" x="10" y="2" /><rect fill="rgb(251,242,75)" height="1" width="1" x="11" y="2" /><rect fill="rgb(251,242,75)" height="1" width="1" x="12" y="2" /><rect fill="rgb(251,242,75)" height="1" width="1" x="13" y="2" /><rect fill="rgb(251,242,75)" height="1" width="1" x="14" y="2" /><rect fill="rgb(251,242,75)" height="1" width="1" x="15" y="2" /><rect fill="rgb(251,242,75)" height="1" width="1" x="16" y="2" /><rect fill="rgb(251,242,75)" height="1" width="1" x="7" y="3" /><rect fill="rgb(251,242,75)" height="1" width="1" x="8" y="3" /><rect fill="rgb(251,242,75)" height="1" width="1" x="9" y="3" /><rect fill="rgb(251,242,75)" height="1" width="1" x="10" y="3" /><rect fill="rgb(251,242,75)" height="1" width="1" x="11" y="3" /><rect fill="rgb(251,242,75)" height="1" width="1" x="12" y="3" /><rect fill="rgb(251,242,75)" height="1" width="1" x="13" y="3" /><rect fill="rgb(251,242,75)" height="1" width="1" x="14" y="3" /><rect fill="rgb(251,242,75)" height="1" width="1" x="15" y="3" /><rect fill="rgb(251,242,75)" height="1" width="1" x="16" y="3" /><rect fill="rgb(251,242,75)" height="1" width="1" x="17" y="3" /><rect fill="rgb(251,242,75)" height="1" width="1" x="6" y="4" /><rect fill="rgb(251,242,75)" height="1" width="1" x="7" y="4" /><rect fill="rgb(251,242,75)" height="1" width="1" x="8" y="4" /><rect fill="rgb(251,242,75)" height="1" width="1" x="9" y="4" /><rect fill="rgb(251,242,75)" height="1" width="1" x="10" y="4" /><rect fill="rgb(251,242,75)" height="1" width="1" x="11" y="4" /><rect fill="rgb(251,242,75)" height="1" width="1" x="12" y="4" /><rect fill="rgb(251,242,75)" height="1" width="1" x="13" y="4" /><rect fill="rgb(251,242,75)" height="1" width="1" x="14" y="4" /><rect fill="rgb(251,242,75)" height="1" width="1" x="15" y="4" /><rect fill="rgb(251,242,75)" height="1" width="1" x="16" y="4" /><rect fill="rgb(251,242,75)" height="1" width="1" x="17" y="4" /><rect fill="rgb(251,242,75)" height="1" width="1" x="6" y="5" /><rect fill="rgb(251,242,75)" height="1" width="1" x="7" y="5" /><rect fill="rgb(251,242,75)" height="1" width="1" x="8" y="5" /><rect fill="rgb(251,242,75)" height="1" width="1" x="9" y="5" /><rect fill="rgb(251,242,75)" height="1" width="1" x="10" y="5" /><rect fill="rgb(251,242,75)" height="1" width="1" x="11" y="5" /><rect fill="rgb(251,242,75)" height="1" width="1" x="12" y="5" /><rect fill="rgb(251,242,75)" height="1" width="1" x="13" y="5" /><rect fill="rgb(251,242,75)" height="1" width="1" x="14" y="5" /><rect fill="rgb(251,242,75)" height="1" width="1" x="15" y="5" /><rect fill="rgb(251,242,75)" height="1" width="1" x="16" y="5" /><rect fill="rgb(251,242,75)" height="1" width="1" x="17" y="5" /><rect fill="rgb(251,242,75)" height="1" width="1" x="6" y="6" /><rect fill="rgb(251,242,75)" height="1" width="1" x="7" y="6" /><rect fill="rgb(251,242,75)" height="1" width="1" x="8" y="6" /><rect fill="rgb(251,242,75)" height="1" width="1" x="9" y="6" /><rect fill="rgb(251,242,75)" height="1" width="1" x="10" y="6" /><rect fill="rgb(251,242,75)" height="1" width="1" x="11" y="6" /><rect fill="rgb(251,242,75)" height="1" width="1" x="12" y="6" /><rect fill="rgb(251,242,75)" height="1" width="1" x="13" y="6" /><rect fill="rgb(251,242,75)" height="1" width="1" x="14" y="6" /><rect fill="rgb(251,242,75)" height="1" width="1" x="15" y="6" /><rect fill="rgb(251,242,75)" height="1" width="1" x="16" y="6" /><rect fill="rgb(251,242,75)" height="1" width="1" x="17" y="6" /><rect fill="rgb(251,242,75)" height="1" width="1" x="6" y="7" /><rect fill="rgb(251,242,75)" height="1" width="1" x="7" y="7" /><rect fill="rgb(251,242,75)" height="1" width="1" x="8" y="7" /><rect fill="rgb(251,242,75)" height="1" width="1" x="9" y="7" /><rect fill="rgb(251,242,75)" height="1" width="1" x="10" y="7" /><rect fill="rgb(251,242,75)" height="1" width="1" x="11" y="7" /><rect fill="rgb(251,242,75)" height="1" width="1" x="12" y="7" /><rect fill="rgb(251,242,75)" height="1" width="1" x="13" y="7" /><rect fill="rgb(251,242,75)" height="1" width="1" x="14" y="7" /><rect fill="rgb(251,242,75)" height="1" width="1" x="15" y="7" /><rect fill="rgb(251,242,75)" height="1" width="1" x="16" y="7" /><rect fill="rgb(251,242,75)" height="1" width="1" x="17" y="7" /><rect fill="rgb(251,242,75)" height="1" width="1" x="6" y="8" /><rect fill="rgb(251,242,75)" height="1" width="1" x="7" y="8" /><rect fill="rgb(251,242,75)" height="1" width="1" x="8" y="8" /><rect fill="rgb(251,242,75)" height="1" width="1" x="9" y="8" /><rect fill="rgb(251,242,75)" height="1" width="1" x="10" y="8" /><rect fill="rgb(251,242,75)" height="1" width="1" x="11" y="8" /><rect fill="rgb(251,242,75)" height="1" width="1" x="12" y="8" /><rect fill="rgb(251,242,75)" height="1" width="1" x="13" y="8" /><rect fill="rgb(251,242,75)" height="1" width="1" x="14" y="8" /><rect fill="rgb(251,242,75)" height="1" width="1" x="15" y="8" /><rect fill="rgb(251,242,75)" height="1" width="1" x="16" y="8" /><rect fill="rgb(251,242,75)" height="1" width="1" x="17" y="8" /><rect fill="rgb(251,242,75)" height="1" width="1" x="6" y="9" /><rect fill="rgb(251,242,75)" height="1" width="1" x="7" y="9" /><rect fill="rgb(251,242,75)" height="1" width="1" x="8" y="9" /><rect fill="rgb(251,242,75)" height="1" width="1" x="9" y="9" /><rect fill="rgb(251,242,75)" height="1" width="1" x="10" y="9" /><rect fill="rgb(251,242,75)" height="1" width="1" x="11" y="9" /><rect fill="rgb(251,242,75)" height="1" width="1" x="12" y="9" /><rect fill="rgb(251,242,75)" height="1" width="1" x="13" y="9" /><rect fill="rgb(251,242,75)" height="1" width="1" x="14" y="9" /><rect fill="rgb(251,242,75)" height="1" width="1" x="15" y="9" /><rect fill="rgb(251,242,75)" height="1" width="1" x="16" y="9" /><rect fill="rgb(251,242,75)" height="1" width="1" x="17" y="9" /><rect fill="rgb(251,242,75)" height="1" width="1" x="6" y="10" /><rect fill="rgb(251,242,75)" height="1" width="1" x="7" y="10" /><rect fill="rgb(251,242,75)" height="1" width="1" x="8" y="10" /><rect fill="rgb(251,242,75)" height="1" width="1" x="9" y="10" /><rect fill="rgb(251,242,75)" height="1" width="1" x="10" y="10" /><rect fill="rgb(251,242,75)" height="1" width="1" x="11" y="10" /><rect fill="rgb(251,242,75)" height="1" width="1" x="12" y="10" /><rect fill="rgb(251,242,75)" height="1" width="1" x="13" y="10" /><rect fill="rgb(251,242,75)" height="1" width="1" x="14" y="10" /><rect fill="rgb(251,242,75)" height="1" width="1" x="15" y="10" /><rect fill="rgb(251,242,75)" height="1" width="1" x="16" y="10" /><rect fill="rgb(251,242,75)" height="1" width="1" x="17" y="10" /><rect fill="rgb(251,242,75)" height="1" width="1" x="6" y="11" /><rect fill="rgb(251,242,75)" height="1" width="1" x="7" y="11" /><rect fill="rgb(251,242,75)" height="1" width="1" x="8" y="11" /><rect fill="rgb(251,242,75)" height="1" width="1" x="9" y="11" /><rect fill="rgb(251,242,75)" height="1" width="1" x="10" y="11" /><rect fill="rgb(251,242,75)" height="1" width="1" x="11" y="11" /><rect fill="rgb(251,242,75)" height="1" width="1" x="12" y="11" /><rect fill="rgb(251,242,75)" height="1" width="1" x="13" y="11" /><rect fill="rgb(251,242,75)" height="1" width="1" x="14" y="11" /><rect fill="rgb(251,242,75)" height="1" width="1" x="15" y="11" /><rect fill="rgb(251,242,75)" height="1" width="1" x="16" y="11" /><rect fill="rgb(251,242,75)" height="1" width="1" x="17" y="11" /><rect fill="rgb(251,242,75)" height="1" width="1" x="6" y="12" /><rect fill="rgb(251,242,75)" height="1" width="1" x="7" y="12" /><rect fill="rgb(251,242,75)" height="1" width="1" x="8" y="12" /><rect fill="rgb(251,242,75)" height="1" width="1" x="9" y="12" /><rect fill="rgb(251,242,75)" height="1" width="1" x="10" y="12" /><rect fill="rgb(251,242,75)" height="1" width="1" x="11" y="12" /><rect fill="rgb(251,242,75)" height="1" width="1" x="12" y="12" /><rect fill="rgb(251,242,75)" height="1" width="1" x="13" y="12" /><rect fill="rgb(251,242,75)" height="1" width="1" x="14" y="12" /><rect fill="rgb(251,242,75)" height="1" width="1" x="15" y="12" /><rect fill="rgb(251,242,75)" height="1" width="1" x="16" y="12" /><rect fill="rgb(251,242,75)" height="1" width="1" x="17" y="12" /><rect fill="rgb(251,242,75)" height="1" width="1" x="22" y="12" /><rect fill="rgb(251,242,75)" height="1" width="1" x="23" y="12" /><rect fill="rgb(251,242,75)" height="1" width="1" x="24" y="12" /><rect fill="rgb(251,242,75)" height="1" width="1" x="25" y="12" /><rect fill="rgb(251,242,75)" height="1" width="1" x="6" y="13" /><rect fill="rgb(251,242,75)" height="1" width="1" x="7" y="13" /><rect fill="rgb(251,242,75)" height="1" width="1" x="8" y="13" /><rect fill="rgb(251,242,75)" height="1" width="1" x="9" y="13" /><rect fill="rgb(251,242,75)" height="1" width="1" x="10" y="13" /><rect fill="rgb(251,242,75)" height="1" width="1" x="11" y="13" /><rect fill="rgb(251,242,75)" height="1" width="1" x="12" y="13" /><rect fill="rgb(251,242,75)" height="1" width="1" x="13" y="13" /><rect fill="rgb(251,242,75)" height="1" width="1" x="14" y="13" /><rect fill="rgb(251,242,75)" height="1" width="1" x="15" y="13" /><rect fill="rgb(251,242,75)" height="1" width="1" x="16" y="13" /><rect fill="rgb(251,242,75)" height="1" width="1" x="17" y="13" /><rect fill="rgb(251,242,75)" height="1" width="1" x="20" y="13" /><rect fill="rgb(251,242,75)" height="1" width="1" x="21" y="13" /><rect fill="rgb(251,242,75)" height="1" width="1" x="22" y="13" /><rect fill="rgb(251,242,75)" height="1" width="1" x="23" y="13" /><rect fill="rgb(251,242,75)" height="1" width="1" x="24" y="13" /><rect fill="rgb(251,242,75)" height="1" width="1" x="25" y="13" /><rect fill="rgb(251,242,75)" height="1" width="1" x="26" y="13" /><rect fill="rgb(251,242,75)" height="1" width="1" x="27" y="13" /><rect fill="rgb(251,242,75)" height="1" width="1" x="6" y="14" /><rect fill="rgb(251,242,75)" height="1" width="1" x="7" y="14" /><rect fill="rgb(251,242,75)" height="1" width="1" x="8" y="14" /><rect fill="rgb(251,242,75)" height="1" width="1" x="9" y="14" /><rect fill="rgb(251,242,75)" height="1" width="1" x="10" y="14" /><rect fill="rgb(251,242,75)" height="1" width="1" x="11" y="14" /><rect fill="rgb(251,242,75)" height="1" width="1" x="12" y="14" /><rect fill="rgb(251,242,75)" height="1" width="1" x="13" y="14" /><rect fill="rgb(251,242,75)" height="1" width="1" x="14" y="14" /><rect fill="rgb(251,242,75)" height="1" width="1" x="15" y="14" /><rect fill="rgb(251,242,75)" height="1" width="1" x="16" y="14" /><rect fill="rgb(251,242,75)" height="1" width="1" x="17" y="14" /><rect fill="rgb(251,242,75)" height="1" width="1" x="19" y="14" /><rect fill="rgb(251,242,75)" height="1" width="1" x="20" y="14" /><rect fill="rgb(251,242,75)" height="1" width="1" x="21" y="14" /><rect fill="rgb(251,242,75)" height="1" width="1" x="22" y="14" /><rect fill="rgb(251,242,75)" height="1" width="1" x="23" y="14" /><rect fill="rgb(251,242,75)" height="1" width="1" x="24" y="14" /><rect fill="rgb(251,242,75)" height="1" width="1" x="25" y="14" /><rect fill="rgb(251,242,75)" height="1" width="1" x="26" y="14" /><rect fill="rgb(251,242,75)" height="1" width="1" x="27" y="14" /><rect fill="rgb(251,242,75)" height="1" width="1" x="28" y="14" /><rect fill="rgb(251,242,75)" height="1" width="1" x="6" y="15" /><rect fill="rgb(251,242,75)" height="1" width="1" x="7" y="15" /><rect fill="rgb(251,242,75)" height="1" width="1" x="8" y="15" /><rect fill="rgb(251,242,75)" height="1" width="1" x="9" y="15" /><rect fill="rgb(251,242,75)" height="1" width="1" x="10" y="15" /><rect fill="rgb(251,242,75)" height="1" width="1" x="11" y="15" /><rect fill="rgb(251,242,75)" height="1" width="1" x="12" y="15" /><rect fill="rgb(251,242,75)" height="1" width="1" x="13" y="15" /><rect fill="rgb(251,242,75)" height="1" width="1" x="14" y="15" /><rect fill="rgb(251,242,75)" height="1" width="1" x="15" y="15" /><rect fill="rgb(251,242,75)" height="1" width="1" x="16" y="15" /><rect fill="rgb(251,242,75)" height="1" width="1" x="17" y="15" /><rect fill="rgb(251,242,75)" height="1" width="1" x="18" y="15" /><rect fill="rgb(251,242,75)" height="1" width="1" x="19" y="15" /><rect fill="rgb(251,242,75)" height="1" width="1" x="20" y="15" /><rect fill="rgb(251,242,75)" height="1" width="1" x="21" y="15" /><rect fill="rgb(251,242,75)" height="1" width="1" x="22" y="15" /><rect fill="rgb(251,242,75)" height="1" width="1" x="23" y="15" /><rect fill="rgb(251,242,75)" height="1" width="1" x="24" y="15" /><rect fill="rgb(251,242,75)" height="1" width="1" x="25" y="15" /><rect fill="rgb(251,242,75)" height="1" width="1" x="26" y="15" /><rect fill="rgb(251,242,75)" height="1" width="1" x="27" y="15" /><rect fill="rgb(251,242,75)" height="1" width="1" x="28" y="15" /><rect fill="rgb(251,242,75)" height="1" width="1" x="6" y="16" /><rect fill="rgb(251,242,75)" height="1" width="1" x="7" y="16" /><rect fill="rgb(251,242,75)" height="1" width="1" x="8" y="16" /><rect fill="rgb(251,242,75)" height="1" width="1" x="9" y="16" /><rect fill="rgb(251,242,75)" height="1" width="1" x="10" y="16" /><rect fill="rgb(251,242,75)" height="1" width="1" x="11" y="16" /><rect fill="rgb(251,242,75)" height="1" width="1" x="12" y="16" /><rect fill="rgb(251,242,75)" height="1" width="1" x="13" y="16" /><rect fill="rgb(251,242,75)" height="1" width="1" x="14" y="16" /><rect fill="rgb(251,242,75)" height="1" width="1" x="15" y="16" /><rect fill="rgb(251,242,75)" height="1" width="1" x="16" y="16" /><rect fill="rgb(251,242,75)" height="1" width="1" x="17" y="16" /><rect fill="rgb(251,242,75)" height="1" width="1" x="18" y="16" /><rect fill="rgb(251,242,75)" height="1" width="1" x="19" y="16" /><rect fill="rgb(251,242,75)" height="1" width="1" x="20" y="16" /><rect fill="rgb(251,242,75)" height="1" width="1" x="21" y="16" /><rect fill="rgb(251,242,75)" height="1" width="1" x="22" y="16" /><rect fill="rgb(251,242,75)" height="1" width="1" x="23" y="16" /><rect fill="rgb(251,242,75)" height="1" width="1" x="24" y="16" /><rect fill="rgb(251,242,75)" height="1" width="1" x="25" y="16" /><rect fill="rgb(251,242,75)" height="1" width="1" x="26" y="16" /><rect fill="rgb(251,242,75)" height="1" width="1" x="27" y="16" /><rect fill="rgb(251,242,75)" height="1" width="1" x="28" y="16" /><rect fill="rgb(251,242,75)" height="1" width="1" x="29" y="16" /><rect fill="rgb(251,242,75)" height="1" width="1" x="6" y="17" /><rect fill="rgb(251,242,75)" height="1" width="1" x="7" y="17" /><rect fill="rgb(251,242,75)" height="1" width="1" x="8" y="17" /><rect fill="rgb(251,242,75)" height="1" width="1" x="9" y="17" /><rect fill="rgb(251,242,75)" height="1" width="1" x="10" y="17" /><rect fill="rgb(251,242,75)" height="1" width="1" x="11" y="17" /><rect fill="rgb(251,242,75)" height="1" width="1" x="12" y="17" /><rect fill="rgb(251,242,75)" height="1" width="1" x="13" y="17" /><rect fill="rgb(251,242,75)" height="1" width="1" x="14" y="17" /><rect fill="rgb(251,242,75)" height="1" width="1" x="15" y="17" /><rect fill="rgb(251,242,75)" height="1" width="1" x="16" y="17" /><rect fill="rgb(251,242,75)" height="1" width="1" x="17" y="17" /><rect fill="rgb(251,242,75)" height="1" width="1" x="18" y="17" /><rect fill="rgb(251,242,75)" height="1" width="1" x="19" y="17" /><rect fill="rgb(251,242,75)" height="1" width="1" x="20" y="17" /><rect fill="rgb(251,242,75)" height="1" width="1" x="21" y="17" /><rect fill="rgb(251,242,75)" height="1" width="1" x="22" y="17" /><rect fill="rgb(251,242,75)" height="1" width="1" x="23" y="17" /><rect fill="rgb(251,242,75)" height="1" width="1" x="24" y="17" /><rect fill="rgb(251,242,75)" height="1" width="1" x="25" y="17" /><rect fill="rgb(251,242,75)" height="1" width="1" x="26" y="17" /><rect fill="rgb(251,242,75)" height="1" width="1" x="27" y="17" /><rect fill="rgb(251,242,75)" height="1" width="1" x="28" y="17" /><rect fill="rgb(251,242,75)" height="1" width="1" x="29" y="17" /><rect fill="rgb(251,242,75)" height="1" width="1" x="6" y="18" /><rect fill="rgb(251,242,75)" height="1" width="1" x="7" y="18" /><rect fill="rgb(251,242,75)" height="1" width="1" x="8" y="18" /><rect fill="rgb(252,243,74)" height="1" width="1" x="9" y="18" /><rect fill="rgb(251,242,75)" height="1" width="1" x="10" y="18" /><rect fill="rgb(251,242,75)" height="1" width="1" x="11" y="18" /><rect fill="rgb(251,242,75)" height="1" width="1" x="12" y="18" /><rect fill="rgb(251,242,75)" height="1" width="1" x="13" y="18" /><rect fill="rgb(251,242,75)" height="1" width="1" x="14" y="18" /><rect fill="rgb(251,242,75)" height="1" width="1" x="15" y="18" /><rect fill="rgb(251,242,75)" height="1" width="1" x="16" y="18" /><rect fill="rgb(251,242,75)" height="1" width="1" x="17" y="18" /><rect fill="rgb(251,242,75)" height="1" width="1" x="18" y="18" /><rect fill="rgb(251,242,75)" height="1" width="1" x="19" y="18" /><rect fill="rgb(251,242,75)" height="1" width="1" x="20" y="18" /><rect fill="rgb(251,242,75)" height="1" width="1" x="21" y="18" /><rect fill="rgb(251,242,75)" height="1" width="1" x="22" y="18" /><rect fill="rgb(251,242,75)" height="1" width="1" x="23" y="18" /><rect fill="rgb(251,242,75)" height="1" width="1" x="24" y="18" /><rect fill="rgb(251,242,75)" height="1" width="1" x="25" y="18" /><rect fill="rgb(251,242,75)" height="1" width="1" x="26" y="18" /><rect fill="rgb(251,242,75)" height="1" width="1" x="27" y="18" /><rect fill="rgb(251,242,75)" height="1" width="1" x="28" y="18" /><rect fill="rgb(251,242,75)" height="1" width="1" x="29" y="18" /><rect fill="rgb(251,242,75)" height="1" width="1" x="6" y="19" /><rect fill="rgb(251,242,75)" height="1" width="1" x="7" y="19" /><rect fill="rgb(248,239,77)" height="1" width="1" x="8" y="19" /><rect fill="rgb(234,222,89)" height="1" width="1" x="9" y="19" /><rect fill="rgb(246,235,80)" height="1" width="1" x="10" y="19" /><rect fill="rgb(253,244,74)" height="1" width="1" x="11" y="19" /><rect fill="rgb(253,244,73)" height="1" width="1" x="12" y="19" /><rect fill="rgb(254,245,73)" height="1" width="1" x="13" y="19" /><rect fill="rgb(254,245,73)" height="1" width="1" x="14" y="19" /><rect fill="rgb(253,245,73)" height="1" width="1" x="15" y="19" /><rect fill="rgb(253,245,73)" height="1" width="1" x="16" y="19" /><rect fill="rgb(254,246,73)" height="1" width="1" x="17" y="19" /><rect fill="rgb(253,245,73)" height="1" width="1" x="18" y="19" /><rect fill="rgb(252,244,74)" height="1" width="1" x="19" y="19" /><rect fill="rgb(251,242,75)" height="1" width="1" x="20" y="19" /><rect fill="rgb(251,242,75)" height="1" width="1" x="21" y="19" /><rect fill="rgb(251,242,75)" height="1" width="1" x="22" y="19" /><rect fill="rgb(251,242,75)" height="1" width="1" x="23" y="19" /><rect fill="rgb(251,242,75)" height="1" width="1" x="24" y="19" /><rect fill="rgb(251,242,75)" height="1" width="1" x="25" y="19" /><rect fill="rgb(251,242,75)" height="1" width="1" x="26" y="19" /><rect fill="rgb(251,242,75)" height="1" width="1" x="27" y="19" /><rect fill="rgb(251,242,75)" height="1" width="1" x="28" y="19" /><rect fill="rgb(251,242,75)" height="1" width="1" x="29" y="19" /><rect fill="rgb(251,242,75)" height="1" width="1" x="6" y="20" /><rect fill="rgb(253,244,73)" height="1" width="1" x="7" y="20" /><rect fill="rgb(188,164,130)" height="1" width="1" x="8" y="20" /><rect fill="rgb(103,57,206)" height="1" width="1" x="9" y="20" /><rect fill="rgb(174,147,142)" height="1" width="1" x="10" y="20" /><rect fill="rgb(226,212,96)" height="1" width="1" x="11" y="20" /><rect fill="rgb(214,197,106)" height="1" width="1" x="12" y="20" /><rect fill="rgb(194,172,124)" height="1" width="1" x="13" y="20" /><rect fill="rgb(194,172,125)" height="1" width="1" x="14" y="20" /><rect fill="rgb(201,180,119)" height="1" width="1" x="15" y="20" /><rect fill="rgb(204,184,116)" height="1" width="1" x="16" y="20" /><rect fill="rgb(194,172,125)" height="1" width="1" x="17" y="20" /><rect fill="rgb(203,183,116)" height="1" width="1" x="18" y="20" /><rect fill="rgb(217,200,104)" height="1" width="1" x="19" y="20" /><rect fill="rgb(251,243,75)" height="1" width="1" x="20" y="20" /><rect fill="rgb(251,242,75)" height="1" width="1" x="21" y="20" /><rect fill="rgb(252,243,74)" height="1" width="1" x="22" y="20" /><rect fill="rgb(254,245,73)" height="1" width="1" x="23" y="20" /><rect fill="rgb(253,245,73)" height="1" width="1" x="24" y="20" /><rect fill="rgb(251,242,75)" height="1" width="1" x="25" y="20" /><rect fill="rgb(251,242,75)" height="1" width="1" x="26" y="20" /><rect fill="rgb(251,242,75)" height="1" width="1" x="27" y="20" /><rect fill="rgb(251,242,75)" height="1" width="1" x="28" y="20" /><rect fill="rgb(251,242,75)" height="1" width="1" x="6" y="21" /><rect fill="rgb(252,243,74)" height="1" width="1" x="7" y="21" /><rect fill="rgb(147,113,166)" height="1" width="1" x="8" y="21" /><rect fill="rgb(71,16,236)" height="1" width="1" x="9" y="21" /><rect fill="rgb(136,99,176)" height="1" width="1" x="10" y="21" /><rect fill="rgb(136,99,176)" height="1" width="1" x="11" y="21" /><rect fill="rgb(146,112,166)" height="1" width="1" x="12" y="21" /><rect fill="rgb(122,81,188)" height="1" width="1" x="13" y="21" /><rect fill="rgb(135,98,176)" height="1" width="1" x="14" y="21" /><rect fill="rgb(139,104,172)" height="1" width="1" x="15" y="21" /><rect fill="rgb(117,75,193)" height="1" width="1" x="16" y="21" /><rect fill="rgb(80,28,227)" height="1" width="1" x="17" y="21" /><rect fill="rgb(95,47,213)" height="1" width="1" x="18" y="21" /><rect fill="rgb(176,149,141)" height="1" width="1" x="19" y="21" /><rect fill="rgb(254,246,72)" height="1" width="1" x="20" y="21" /><rect fill="rgb(253,245,73)" height="1" width="1" x="21" y="21" /><rect fill="rgb(236,223,88)" height="1" width="1" x="22" y="21" /><rect fill="rgb(188,163,130)" height="1" width="1" x="23" y="21" /><rect fill="rgb(190,167,128)" height="1" width="1" x="24" y="21" /><rect fill="rgb(245,235,80)" height="1" width="1" x="25" y="21" /><rect fill="rgb(251,242,75)" height="1" width="1" x="26" y="21" /><rect fill="rgb(251,242,75)" height="1" width="1" x="27" y="21" /><rect fill="rgb(251,242,75)" height="1" width="1" x="28" y="21" /><rect fill="rgb(251,242,75)" height="1" width="1" x="6" y="22" /><rect fill="rgb(251,243,74)" height="1" width="1" x="7" y="22" /><rect fill="rgb(148,114,166)" height="1" width="1" x="8" y="22" /><rect fill="rgb(73,19,233)" height="1" width="1" x="9" y="22" /><rect fill="rgb(129,90,182)" height="1" width="1" x="10" y="22" /><rect fill="rgb(155,123,158)" height="1" width="1" x="11" y="22" /><rect fill="rgb(141,106,171)" height="1" width="1" x="12" y="22" /><rect fill="rgb(154,123,159)" height="1" width="1" x="13" y="22" /><rect fill="rgb(148,115,164)" height="1" width="1" x="14" y="22" /><rect fill="rgb(170,143,144)" height="1" width="1" x="15" y="22" /><rect fill="rgb(109,66,200)" height="1" width="1" x="16" y="22" /><rect fill="rgb(95,48,213)" height="1" width="1" x="17" y="22" /><rect fill="rgb(122,82,188)" height="1" width="1" x="18" y="22" /><rect fill="rgb(193,171,125)" height="1" width="1" x="19" y="22" /><rect fill="rgb(215,198,106)" height="1" width="1" x="20" y="22" /><rect fill="rgb(168,139,148)" height="1" width="1" x="21" y="22" /><rect fill="rgb(114,71,196)" height="1" width="1" x="22" y="22" /><rect fill="rgb(78,26,229)" height="1" width="1" x="23" y="22" /><rect fill="rgb(87,37,221)" height="1" width="1" x="24" y="22" /><rect fill="rgb(214,196,107)" height="1" width="1" x="25" y="22" /><rect fill="rgb(254,245,73)" height="1" width="1" x="26" y="22" /><rect fill="rgb(251,242,75)" height="1" width="1" x="27" y="22" /><rect fill="rgb(251,242,75)" height="1" width="1" x="6" y="23" /><rect fill="rgb(251,242,75)" height="1" width="1" x="7" y="23" /><rect fill="rgb(147,112,167)" height="1" width="1" x="8" y="23" /><rect fill="rgb(74,20,233)" height="1" width="1" x="9" y="23" /><rect fill="rgb(110,66,200)" height="1" width="1" x="10" y="23" /><rect fill="rgb(107,62,202)" height="1" width="1" x="11" y="23" /><rect fill="rgb(90,40,218)" height="1" width="1" x="12" y="23" /><rect fill="rgb(106,62,203)" height="1" width="1" x="13" y="23" /><rect fill="rgb(88,37,220)" height="1" width="1" x="14" y="23" /><rect fill="rgb(110,66,199)" height="1" width="1" x="15" y="23" /><rect fill="rgb(85,34,223)" height="1" width="1" x="16" y="23" /><rect fill="rgb(81,29,226)" height="1" width="1" x="17" y="23" /><rect fill="rgb(87,36,221)" height="1" width="1" x="18" y="23" /><rect fill="rgb(132,93,180)" height="1" width="1" x="19" y="23" /><rect fill="rgb(101,55,208)" height="1" width="1" x="20" y="23" /><rect fill="rgb(75,22,231)" height="1" width="1" x="21" y="23" /><rect fill="rgb(76,22,231)" height="1" width="1" x="22" y="23" /><rect fill="rgb(93,44,216)" height="1" width="1" x="23" y="23" /><rect fill="rgb(147,113,166)" height="1" width="1" x="24" y="23" /><rect fill="rgb(233,220,90)" height="1" width="1" x="25" y="23" /><rect fill="rgb(255,248,71)" height="1" width="1" x="26" y="23" /><rect fill="rgb(251,242,75)" height="1" width="1" x="6" y="24" /><rect fill="rgb(251,242,75)" height="1" width="1" x="7" y="24" /><rect fill="rgb(145,110,169)" height="1" width="1" x="8" y="24" /><rect fill="rgb(75,21,232)" height="1" width="1" x="9" y="24" /><rect fill="rgb(78,25,229)" height="1" width="1" x="10" y="24" /><rect fill="rgb(76,23,230)" height="1" width="1" x="11" y="24" /><rect fill="rgb(89,39,219)" height="1" width="1" x="12" y="24" /><rect fill="rgb(90,41,217)" height="1" width="1" x="13" y="24" /><rect fill="rgb(77,23,230)" height="1" width="1" x="14" y="24" /><rect fill="rgb(76,23,230)" height="1" width="1" x="15" y="24" /><rect fill="rgb(78,25,229)" height="1" width="1" x="16" y="24" /><rect fill="rgb(78,25,229)" height="1" width="1" x="17" y="24" /><rect fill="rgb(77,24,230)" height="1" width="1" x="18" y="24" /><rect fill="rgb(78,26,228)" height="1" width="1" x="19" y="24" /><rect fill="rgb(89,39,219)" height="1" width="1" x="20" y="24" /><rect fill="rgb(79,26,228)" height="1" width="1" x="21" y="24" /><rect fill="rgb(77,24,230)" height="1" width="1" x="22" y="24" /><rect fill="rgb(133,96,178)" height="1" width="1" x="23" y="24" /><rect fill="rgb(237,225,87)" height="1" width="1" x="24" y="24" /><rect fill="rgb(255,248,71)" height="1" width="1" x="25" y="24" /><rect fill="rgb(239,221,90)" height="1" width="1" x="26" y="24" /><rect fill="rgb(251,242,75)" height="1" width="1" x="6" y="25" /><rect fill="rgb(251,242,75)" height="1" width="1" x="7" y="25" /><rect fill="rgb(146,111,168)" height="1" width="1" x="8" y="25" /><rect fill="rgb(75,21,232)" height="1" width="1" x="9" y="25" /><rect fill="rgb(78,24,229)" height="1" width="1" x="10" y="25" /><rect fill="rgb(76,23,231)" height="1" width="1" x="11" y="25" /><rect fill="rgb(111,68,198)" height="1" width="1" x="12" y="25" /><rect fill="rgb(110,66,199)" height="1" width="1" x="13" y="25" /><rect fill="rgb(76,23,231)" height="1" width="1" x="14" y="25" /><rect fill="rgb(78,25,229)" height="1" width="1" x="15" y="25" /><rect fill="rgb(78,25,229)" height="1" width="1" x="16" y="25" /><rect fill="rgb(78,25,229)" height="1" width="1" x="17" y="25" /><rect fill="rgb(78,25,229)" height="1" width="1" x="18" y="25" /><rect fill="rgb(80,27,227)" height="1" width="1" x="19" y="25" /><rect fill="rgb(116,74,193)" height="1" width="1" x="20" y="25" /><rect fill="rgb(85,35,222)" height="1" width="1" x="21" y="25" /><rect fill="rgb(77,24,230)" height="1" width="1" x="22" y="25" /><rect fill="rgb(81,29,226)" height="1" width="1" x="23" y="25" /><rect fill="rgb(135,98,177)" height="1" width="1" x="24" y="25" /><rect fill="rgb(221,206,101)" height="1" width="1" x="25" y="25" /><rect fill="rgb(254,245,73)" height="1" width="1" x="26" y="25" /><rect fill="rgb(251,242,75)" height="1" width="1" x="27" y="25" /><rect fill="rgb(251,242,75)" height="1" width="1" x="6" y="26" /><rect fill="rgb(252,243,74)" height="1" width="1" x="7" y="26" /><rect fill="rgb(149,115,165)" height="1" width="1" x="8" y="26" /><rect fill="rgb(72,18,234)" height="1" width="1" x="9" y="26" /><rect fill="rgb(83,31,224)" height="1" width="1" x="10" y="26" /><rect fill="rgb(80,27,227)" height="1" width="1" x="11" y="26" /><rect fill="rgb(77,24,230)" height="1" width="1" x="12" y="26" /><rect fill="rgb(81,29,226)" height="1" width="1" x="13" y="26" /><rect fill="rgb(76,22,231)" height="1" width="1" x="14" y="26" /><rect fill="rgb(81,29,226)" height="1" width="1" x="15" y="26" /><rect fill="rgb(76,22,231)" height="1" width="1" x="16" y="26" /><rect fill="rgb(75,22,231)" height="1" width="1" x="17" y="26" /><rect fill="rgb(75,21,232)" height="1" width="1" x="18" y="26" /><rect fill="rgb(93,44,215)" height="1" width="1" x="19" y="26" /><rect fill="rgb(83,32,224)" height="1" width="1" x="20" y="26" /><rect fill="rgb(75,21,232)" height="1" width="1" x="21" y="26" /><rect fill="rgb(75,22,231)" height="1" width="1" x="22" y="26" /><rect fill="rgb(75,21,232)" height="1" width="1" x="23" y="26" /><rect fill="rgb(72,18,234)" height="1" width="1" x="24" y="26" /><rect fill="rgb(165,135,151)" height="1" width="1" x="25" y="26" /><rect fill="rgb(253,245,73)" height="1" width="1" x="26" y="26" /><rect fill="rgb(251,242,75)" height="1" width="1" x="27" y="26" /><rect fill="rgb(251,242,75)" height="1" width="1" x="28" y="26" /><rect fill="rgb(251,242,75)" height="1" width="1" x="6" y="27" /><rect fill="rgb(253,244,74)" height="1" width="1" x="7" y="27" /><rect fill="rgb(205,185,115)" height="1" width="1" x="8" y="27" /><rect fill="rgb(129,90,182)" height="1" width="1" x="9" y="27" /><rect fill="rgb(178,151,139)" height="1" width="1" x="10" y="27" /><rect fill="rgb(164,134,151)" height="1" width="1" x="11" y="27" /><rect fill="rgb(139,103,173)" height="1" width="1" x="12" y="27" /><rect fill="rgb(167,138,148)" height="1" width="1" x="13" y="27" /><rect fill="rgb(138,101,175)" height="1" width="1" x="14" y="27" /><rect fill="rgb(180,154,137)" height="1" width="1" x="15" y="27" /><rect fill="rgb(136,99,176)" height="1" width="1" x="16" y="27" /><rect fill="rgb(125,85,186)" height="1" width="1" x="17" y="27" /><rect fill="rgb(143,107,171)" height="1" width="1" x="18" y="27" /><rect fill="rgb(202,181,118)" height="1" width="1" x="19" y="27" /><rect fill="rgb(161,130,154)" height="1" width="1" x="20" y="27" /><rect fill="rgb(123,82,188)" height="1" width="1" x="21" y="27" /><rect fill="rgb(124,83,187)" height="1" width="1" x="22" y="27" /><rect fill="rgb(124,83,188)" height="1" width="1" x="23" y="27" /><rect fill="rgb(134,96,178)" height="1" width="1" x="24" y="27" /><rect fill="rgb(214,197,107)" height="1" width="1" x="25" y="27" /><rect fill="rgb(252,244,74)" height="1" width="1" x="26" y="27" /><rect fill="rgb(251,242,75)" height="1" width="1" x="27" y="27" /><rect fill="rgb(251,242,75)" height="1" width="1" x="28" y="27" /><rect fill="rgb(251,242,75)" height="1" width="1" x="6" y="28" /><rect fill="rgb(251,242,75)" height="1" width="1" x="7" y="28" /><rect fill="rgb(252,243,74)" height="1" width="1" x="8" y="28" /><rect fill="rgb(247,237,78)" height="1" width="1" x="9" y="28" /><rect fill="rgb(251,243,75)" height="1" width="1" x="10" y="28" /><rect fill="rgb(251,242,75)" height="1" width="1" x="11" y="28" /><rect fill="rgb(248,239,77)" height="1" width="1" x="12" y="28" /><rect fill="rgb(251,242,75)" height="1" width="1" x="13" y="28" /><rect fill="rgb(248,239,77)" height="1" width="1" x="14" y="28" /><rect fill="rgb(253,244,74)" height="1" width="1" x="15" y="28" /><rect fill="rgb(248,238,77)" height="1" width="1" x="16" y="28" /><rect fill="rgb(246,236,79)" height="1" width="1" x="17" y="28" /><rect fill="rgb(250,241,76)" height="1" width="1" x="18" y="28" /><rect fill="rgb(253,245,73)" height="1" width="1" x="19" y="28" /><rect fill="rgb(250,241,76)" height="1" width="1" x="20" y="28" /><rect fill="rgb(246,235,80)" height="1" width="1" x="21" y="28" /><rect fill="rgb(245,235,80)" height="1" width="1" x="22" y="28" /><rect fill="rgb(245,235,80)" height="1" width="1" x="23" y="28" /><rect fill="rgb(248,238,78)" height="1" width="1" x="24" y="28" /><rect fill="rgb(252,243,74)" height="1" width="1" x="25" y="28" /><rect fill="rgb(251,242,75)" height="1" width="1" x="26" y="28" /><rect fill="rgb(251,242,75)" height="1" width="1" x="27" y="28" /><rect fill="rgb(251,242,75)" height="1" width="1" x="28" y="28" /><rect fill="rgb(251,242,75)" height="1" width="1" x="29" y="28" /><rect fill="rgb(251,242,75)" height="1" width="1" x="6" y="29" /><rect fill="rgb(251,242,75)" height="1" width="1" x="7" y="29" /><rect fill="rgb(251,242,75)" height="1" width="1" x="8" y="29" /><rect fill="rgb(251,242,75)" height="1" width="1" x="9" y="29" /><rect fill="rgb(251,242,75)" height="1" width="1" x="10" y="29" /><rect fill="rgb(251,242,75)" height="1" width="1" x="11" y="29" /><rect fill="rgb(251,242,75)" height="1" width="1" x="12" y="29" /><rect fill="rgb(251,242,75)" height="1" width="1" x="13" y="29" /><rect fill="rgb(251,242,75)" height="1" width="1" x="14" y="29" /><rect fill="rgb(251,242,75)" height="1" width="1" x="15" y="29" /><rect fill="rgb(251,242,75)" height="1" width="1" x="16" y="29" /><rect fill="rgb(251,242,75)" height="1" width="1" x="17" y="29" /><rect fill="rgb(251,242,75)" height="1" width="1" x="18" y="29" /><rect fill="rgb(251,242,75)" height="1" width="1" x="19" y="29" /><rect fill="rgb(251,242,75)" height="1" width="1" x="20" y="29" /><rect fill="rgb(251,242,75)" height="1" width="1" x="21" y="29" /><rect fill="rgb(251,242,75)" height="1" width="1" x="22" y="29" /><rect fill="rgb(251,242,75)" height="1" width="1" x="23" y="29" /><rect fill="rgb(251,242,75)" height="1" width="1" x="24" y="29" /><rect fill="rgb(251,242,75)" height="1" width="1" x="25" y="29" /><rect fill="rgb(251,242,75)" height="1" width="1" x="26" y="29" /><rect fill="rgb(251,242,75)" height="1" width="1" x="27" y="29" /><rect fill="rgb(251,242,75)" height="1" width="1" x="28" y="29" /><rect fill="rgb(251,242,75)" height="1" width="1" x="29" y="29" /><rect fill="rgb(251,242,75)" height="1" width="1" x="6" y="30" /><rect fill="rgb(251,242,75)" height="1" width="1" x="7" y="30" /><rect fill="rgb(251,242,75)" height="1" width="1" x="8" y="30" /><rect fill="rgb(251,242,75)" height="1" width="1" x="9" y="30" /><rect fill="rgb(251,242,75)" height="1" width="1" x="10" y="30" /><rect fill="rgb(251,242,75)" height="1" width="1" x="11" y="30" /><rect fill="rgb(251,242,75)" height="1" width="1" x="12" y="30" /><rect fill="rgb(251,242,75)" height="1" width="1" x="13" y="30" /><rect fill="rgb(251,242,75)" height="1" width="1" x="14" y="30" /><rect fill="rgb(251,242,75)" height="1" width="1" x="15" y="30" /><rect fill="rgb(251,242,75)" height="1" width="1" x="16" y="30" /><rect fill="rgb(251,242,75)" height="1" width="1" x="17" y="30" /><rect fill="rgb(251,242,75)" height="1" width="1" x="18" y="30" /><rect fill="rgb(251,242,75)" height="1" width="1" x="19" y="30" /><rect fill="rgb(251,242,75)" height="1" width="1" x="20" y="30" /><rect fill="rgb(251,242,75)" height="1" width="1" x="21" y="30" /><rect fill="rgb(251,242,75)" height="1" width="1" x="22" y="30" /><rect fill="rgb(251,242,75)" height="1" width="1" x="23" y="30" /><rect fill="rgb(251,242,75)" height="1" width="1" x="24" y="30" /><rect fill="rgb(251,242,75)" height="1" width="1" x="25" y="30" /><rect fill="rgb(251,242,75)" height="1" width="1" x="26" y="30" /><rect fill="rgb(251,242,75)" height="1" width="1" x="27" y="30" /><rect fill="rgb(251,242,75)" height="1" width="1" x="28" y="30" /><rect fill="rgb(251,242,75)" height="1" width="1" x="29" y="30" /><rect fill="rgb(251,242,75)" height="1" width="1" x="6" y="31" /><rect fill="rgb(251,242,75)" height="1" width="1" x="7" y="31" /><rect fill="rgb(251,242,75)" height="1" width="1" x="8" y="31" /><rect fill="rgb(251,242,75)" height="1" width="1" x="9" y="31" /><rect fill="rgb(251,242,75)" height="1" width="1" x="10" y="31" /><rect fill="rgb(251,242,75)" height="1" width="1" x="11" y="31" /><rect fill="rgb(251,242,75)" height="1" width="1" x="12" y="31" /><rect fill="rgb(251,242,75)" height="1" width="1" x="13" y="31" /><rect fill="rgb(251,242,75)" height="1" width="1" x="14" y="31" /><rect fill="rgb(251,242,75)" height="1" width="1" x="15" y="31" /><rect fill="rgb(251,242,75)" height="1" width="1" x="16" y="31" /><rect fill="rgb(251,242,75)" height="1" width="1" x="17" y="31" /><rect fill="rgb(251,242,75)" height="1" width="1" x="18" y="31" /><rect fill="rgb(251,242,75)" height="1" width="1" x="19" y="31" /><rect fill="rgb(251,242,75)" height="1" width="1" x="20" y="31" /><rect fill="rgb(251,242,75)" height="1" width="1" x="21" y="31" /><rect fill="rgb(251,242,75)" height="1" width="1" x="22" y="31" /><rect fill="rgb(251,242,75)" height="1" width="1" x="23" y="31" /><rect fill="rgb(251,242,75)" height="1" width="1" x="24" y="31" /><rect fill="rgb(251,242,75)" height="1" width="1" x="25" y="31" /><rect fill="rgb(251,242,75)" height="1" width="1" x="26" y="31" /><rect fill="rgb(251,242,75)" height="1" width="1" x="27" y="31" /><rect fill="rgb(251,242,75)" height="1" width="1" x="28" y="31" /><rect fill="rgb(251,242,75)" height="1" width="1" x="29" y="31" /><rect fill="rgb(251,242,75)" height="1" width="1" x="6" y="32" /><rect fill="rgb(251,242,75)" height="1" width="1" x="7" y="32" /><rect fill="rgb(251,242,75)" height="1" width="1" x="8" y="32" /><rect fill="rgb(251,242,75)" height="1" width="1" x="9" y="32" /><rect fill="rgb(251,242,75)" height="1" width="1" x="10" y="32" /><rect fill="rgb(251,242,75)" height="1" width="1" x="11" y="32" /><rect fill="rgb(251,242,75)" height="1" width="1" x="12" y="32" /><rect fill="rgb(251,242,75)" height="1" width="1" x="13" y="32" /><rect fill="rgb(251,242,75)" height="1" width="1" x="14" y="32" /><rect fill="rgb(251,242,75)" height="1" width="1" x="15" y="32" /><rect fill="rgb(251,242,75)" height="1" width="1" x="16" y="32" /><rect fill="rgb(251,242,75)" height="1" width="1" x="17" y="32" /><rect fill="rgb(251,242,75)" height="1" width="1" x="18" y="32" /><rect fill="rgb(251,242,75)" height="1" width="1" x="19" y="32" /><rect fill="rgb(251,242,75)" height="1" width="1" x="20" y="32" /><rect fill="rgb(251,242,75)" height="1" width="1" x="21" y="32" /><rect fill="rgb(251,242,75)" height="1" width="1" x="22" y="32" /><rect fill="rgb(251,242,75)" height="1" width="1" x="23" y="32" /><rect fill="rgb(251,242,75)" height="1" width="1" x="24" y="32" /><rect fill="rgb(251,242,75)" height="1" width="1" x="25" y="32" /><rect fill="rgb(251,242,75)" height="1" width="1" x="26" y="32" /><rect fill="rgb(251,242,75)" height="1" width="1" x="27" y="32" /><rect fill="rgb(251,242,75)" height="1" width="1" x="28" y="32" /><rect fill="rgb(251,242,75)" height="1" width="1" x="29" y="32" /><rect fill="rgb(251,242,75)" height="1" width="1" x="7" y="33" /><rect fill="rgb(251,242,75)" height="1" width="1" x="8" y="33" /><rect fill="rgb(251,242,75)" height="1" width="1" x="9" y="33" /><rect fill="rgb(251,242,75)" height="1" width="1" x="10" y="33" /><rect fill="rgb(251,242,75)" height="1" width="1" x="11" y="33" /><rect fill="rgb(251,242,75)" height="1" width="1" x="12" y="33" /><rect fill="rgb(251,242,75)" height="1" width="1" x="13" y="33" /><rect fill="rgb(251,242,75)" height="1" width="1" x="14" y="33" /><rect fill="rgb(251,242,75)" height="1" width="1" x="15" y="33" /><rect fill="rgb(251,242,75)" height="1" width="1" x="16" y="33" /><rect fill="rgb(251,242,75)" height="1" width="1" x="17" y="33" /><rect fill="rgb(251,242,75)" height="1" width="1" x="19" y="33" /><rect fill="rgb(251,242,75)" height="1" width="1" x="20" y="33" /><rect fill="rgb(251,242,75)" height="1" width="1" x="21" y="33" /><rect fill="rgb(251,242,75)" height="1" width="1" x="22" y="33" /><rect fill="rgb(251,242,75)" height="1" width="1" x="23" y="33" /><rect fill="rgb(251,242,75)" height="1" width="1" x="24" y="33" /><rect fill="rgb(251,242,75)" height="1" width="1" x="25" y="33" /><rect fill="rgb(251,242,75)" height="1" width="1" x="26" y="33" /><rect fill="rgb(251,242,75)" height="1" width="1" x="27" y="33" /><rect fill="rgb(251,242,75)" height="1" width="1" x="28" y="33" /><rect fill="rgb(251,242,75)" height="1" width="1" x="7" y="34" /><rect fill="rgb(251,242,75)" height="1" width="1" x="8" y="34" /><rect fill="rgb(251,242,75)" height="1" width="1" x="9" y="34" /><rect fill="rgb(251,242,75)" height="1" width="1" x="10" y="34" /><rect fill="rgb(251,242,75)" height="1" width="1" x="11" y="34" /><rect fill="rgb(251,242,75)" height="1" width="1" x="12" y="34" /><rect fill="rgb(251,242,75)" height="1" width="1" x="13" y="34" /><rect fill="rgb(251,242,75)" height="1" width="1" x="14" y="34" /><rect fill="rgb(251,242,75)" height="1" width="1" x="15" y="34" /><rect fill="rgb(251,242,75)" height="1" width="1" x="16" y="34" /><rect fill="rgb(251,242,75)" height="1" width="1" x="19" y="34" /><rect fill="rgb(251,242,75)" height="1" width="1" x="20" y="34" /><rect fill="rgb(251,242,75)" height="1" width="1" x="21" y="34" /><rect fill="rgb(251,242,75)" height="1" width="1" x="22" y="34" /><rect fill="rgb(251,242,75)" height="1" width="1" x="23" y="34" /><rect fill="rgb(251,242,75)" height="1" width="1" x="24" y="34" /><rect fill="rgb(251,242,75)" height="1" width="1" x="25" y="34" /><rect fill="rgb(251,242,75)" height="1" width="1" x="26" y="34" /><rect fill="rgb(251,242,75)" height="1" width="1" x="27" y="34" /><rect fill="rgb(251,242,75)" height="1" width="1" x="28" y="34" /><rect fill="rgb(251,242,75)" height="1" width="1" x="9" y="35" /><rect fill="rgb(251,242,75)" height="1" width="1" x="10" y="35" /><rect fill="rgb(251,242,75)" height="1" width="1" x="11" y="35" /><rect fill="rgb(251,242,75)" height="1" width="1" x="12" y="35" /><rect fill="rgb(251,242,75)" height="1" width="1" x="13" y="35" /><rect fill="rgb(251,242,75)" height="1" width="1" x="14" y="35" /><rect fill="rgb(251,242,75)" height="1" width="1" x="21" y="35" /><rect fill="rgb(251,242,75)" height="1" width="1" x="22" y="35" /><rect fill="rgb(251,242,75)" height="1" width="1" x="23" y="35" /><rect fill="rgb(251,242,75)" height="1" width="1" x="24" y="35" /><rect fill="rgb(251,242,75)" height="1" width="1" x="25" y="35" /><rect fill="rgb(251,242,75)" height="1" width="1" x="26" y="35" /></svg>