<?xml version="1.0" standalone="no"?>
<!DOCTYPE svg PUBLIC "-//W3C//DTD SVG 20010904//EN"
 "http://www.w3.org/TR/2001/REC-SVG-20010904/DTD/svg10.dtd">
<svg version="1.0" xmlns="http://www.w3.org/2000/svg"
 width="32.000000pt" height="32.000000pt" viewBox="0 0 32.000000 32.000000"
 preserveAspectRatio="xMidYMid meet">

<g transform="translate(0.000000,32.000000) scale(0.100000,-0.100000)"
fill="#000000" stroke="none">
<path d="M90 115 l0 -30 65 3 c52 3 64 6 56 16 -6 7 -7 16 -3 21 4 4 -6 5 -21
1 -19 -4 -26 -3 -22 4 4 6 -4 10 -19 10 -14 0 -28 -5 -32 -11 -4 -8 -9 -7 -15
2 -6 10 -9 5 -9 -16z m57 9 c-3 -3 -12 -4 -19 -1 -8 3 -5 6 6 6 11 1 17 -2 13
-5z"/>
</g>
</svg>
