<svg xmlns="http://www.w3.org/2000/svg" width="917" height="250" viewBox="0 0 917 250">
<g>
<path d="M 96.96 177.38 C93.32,180.44 91.04,180.67 88.08,178.25 C86.20,176.72 85.76,174.63 84.49,161.50 C82.66,142.56 82.66,141.48 84.57,139.57 C86.54,137.61 92.36,137.52 93.94,139.43 C94.60,140.22 95.35,143.48 95.63,146.68 C95.90,149.88 96.34,153.55 96.60,154.83 L 97.08 157.17 L 99.11 154.58 C100.67,152.60 102.04,152.00 105.01,152.00 C107.14,152.00 109.16,152.46 109.51,153.02 C109.90,153.64 111.13,153.25 112.70,152.02 C115.71,149.65 117.90,149.47 120.51,151.38 C122.15,152.59 122.74,152.51 125.05,150.81 C128.81,148.03 140.45,147.75 144.42,150.36 C147.21,152.18 147.92,151.97 149.23,148.87 C149.78,147.58 168.08,138.00 170.00,138.00 C172.59,138.00 176.00,141.43 176.00,144.05 C176.00,146.06 173.44,148.97 168.92,152.09 L 166.63 153.67 L 172.81 157.87 C178.30,161.60 179.00,162.45 179.00,165.38 C179.00,170.47 176.53,171.96 166.37,173.03 C157.64,173.95 155.19,174.21 153.44,173.23 C152.74,172.84 152.16,172.25 151.34,171.43 L 148.76 168.85 L 146.06 171.45 C141.46,175.85 130.67,177.56 126.39,174.56 C124.56,173.28 124.16,173.33 122.68,175.06 C120.74,177.33 117.17,177.57 114.50,175.62 C112.86,174.42 112.42,174.50 111.00,176.25 C109.00,178.72 104.59,178.84 102.00,176.50 C100.16,174.83 99.94,174.87 96.96,177.38 ZM 110.27 145.00 C110.78,148.79 110.05,150.72 108.64,149.31 C108.29,148.95 108.00,147.33 108.00,145.69 C108.00,144.05 107.24,142.17 106.31,141.48 C104.46,140.13 105.56,139.85 118.25,138.48 L 124.00 137.86 L 124.00 140.87 C124.00,142.53 124.45,144.16 125.00,144.50 C125.59,144.87 126.00,143.69 126.00,141.60 C126.00,138.42 126.31,138.04 129.25,137.52 C131.04,137.21 133.85,137.01 135.50,137.06 C137.15,137.12 139.74,136.85 141.25,136.47 C143.03,136.02 144.00,136.16 144.00,136.88 C144.00,137.50 143.32,138.00 142.50,138.00 C141.68,138.00 141.00,138.45 141.00,139.00 C141.00,139.55 141.68,140.00 142.50,140.00 C143.32,140.00 144.00,140.45 144.00,141.00 C144.00,141.55 143.32,142.00 142.50,142.00 C141.68,142.00 141.00,142.45 141.00,143.00 C141.00,143.55 141.90,144.00 143.00,144.00 C144.10,144.00 145.00,144.40 145.00,144.89 C145.00,146.19 139.11,146.83 138.69,145.57 C138.45,144.86 137.78,144.95 136.71,145.83 C135.83,146.56 133.61,147.03 131.79,146.88 C129.96,146.72 127.91,146.94 127.23,147.36 C126.54,147.78 125.09,147.84 123.99,147.50 C122.50,147.02 122.00,145.98 122.00,143.35 C122.00,141.02 121.59,139.97 120.78,140.24 C119.99,140.50 119.66,142.20 119.86,144.94 C120.09,148.16 119.84,149.11 118.83,148.78 C118.10,148.54 117.36,146.69 117.19,144.67 C116.77,139.72 115.00,139.98 115.00,145.00 C115.00,147.20 114.61,149.00 114.13,149.00 C113.65,149.00 112.97,147.20 112.62,145.00 C111.76,139.64 109.55,139.64 110.27,145.00 ZM 103.95 148.74 C102.48,147.82 101.72,147.95 100.16,149.36 C99.08,150.33 98.00,150.76 97.76,150.32 C96.99,148.86 100.08,140.00 101.36,140.00 C102.71,140.00 107.21,148.45 106.33,149.34 C106.03,149.64 104.96,149.37 103.95,148.74 ZM 108.65 166.16 C111.07,168.84 111.65,168.44 111.18,164.45 C110.79,161.04 110.70,160.96 108.88,162.61 C107.11,164.21 107.09,164.44 108.65,166.16 ZM 151.00 162.05 C151.00,162.54 151.68,162.68 152.50,162.36 C154.61,161.55 154.37,160.27 151.85,158.92 C149.99,157.92 149.79,158.00 150.35,159.47 C150.71,160.40 151.00,161.56 151.00,162.05 Z" fill="rgba(77,24,229,1)"/>
<path d="M 22.20 248.11 C16.05,245.98 10.83,242.04 6.26,236.09 C5.40,234.97 4.65,234.06 4.01,233.09 C-0.23,226.69 -0.03,217.36 0.23,122.93 L 0.50 24.50 L 2.66 19.82 C5.72,13.20 12.28,6.50 18.86,3.27 L 24.50 0.50 L 892.50 0.50 L 898.14 3.27 C904.72,6.50 911.28,13.20 914.34,19.82 L 916.50 24.50 L 916.50 225.50 L 914.34 230.18 C911.28,236.80 904.72,243.50 898.14,246.73 L 892.50 249.50 L 460.00 249.72 C43.06,249.93 27.31,249.87 22.20,248.11 ZM 98.33 220.15 C104.77,222.37 110.11,222.45 116.93,220.43 C122.44,218.79 128.70,213.39 137.52,202.66 L 141.50 197.82 L 149.91 204.47 C160.06,212.49 162.44,213.78 169.53,215.09 C178.35,216.72 186.01,214.11 193.09,207.05 C200.07,200.10 202.50,193.77 201.75,184.48 C200.98,174.94 197.34,169.16 186.76,160.70 C181.94,156.85 178.00,153.29 178.00,152.80 C178.00,152.31 180.99,148.23 184.65,143.74 C194.99,131.04 197.58,122.95 194.60,112.71 C190.23,97.68 176.59,89.06 161.56,91.85 C153.24,93.39 147.59,97.63 138.45,109.19 C134.18,114.59 130.50,118.83 130.28,118.61 C130.06,118.39 128.32,102.80 126.42,83.97 C123.72,57.12 122.53,48.72 120.93,45.11 C115.23,32.20 100.96,25.66 87.01,29.58 C75.35,32.85 66.00,44.58 66.00,55.93 C66.00,66.29 79.02,198.88 80.42,202.82 C83.47,211.38 89.31,217.03 98.33,220.15 ZM 502.00 90.84 L 502.00 158.00 L 518.46 158.00 C532.50,158.00 535.72,157.70 540.29,155.99 C547.84,153.17 553.34,148.09 557.09,140.47 C565.53,123.33 559.48,102.56 543.62,94.21 C538.69,91.61 537.82,91.50 520.25,91.17 L 502.00 90.84 ZM 759.00 91.00 L 759.00 158.16 L 776.75 157.82 C793.70,157.50 794.73,157.37 799.54,154.83 C806.36,151.24 812.26,144.58 814.96,137.42 C816.82,132.48 817.12,130.01 816.80,122.50 C816.46,114.57 816.00,112.74 812.99,107.10 C810.72,102.87 808.02,99.57 805.03,97.36 C797.87,92.07 792.80,91.00 774.82,91.00 L 759.00 91.00 ZM 532.99 149.91 C527.42,151.10 512.73,151.40 511.67,150.33 C511.30,149.97 511.00,138.27 511.00,124.33 L 511.00 99.00 L 522.53 99.00 C535.17,99.00 539.38,100.12 544.38,104.80 C552.27,112.20 554.47,126.78 549.25,137.06 C545.88,143.71 539.92,148.42 532.99,149.91 ZM 794.57 148.25 C791.37,149.90 788.10,150.44 779.25,150.80 L 768.00 151.25 L 768.00 98.84 L 780.33 99.17 C792.05,99.48 792.91,99.65 797.57,102.53 C806.83,108.26 811.14,122.68 807.10,134.38 C805.38,139.35 799.77,145.56 794.57,148.25 ZM 216.98 157.25 C216.99,157.66 219.06,158.00 221.58,158.00 L 226.17 158.00 L 229.80 150.00 L 233.44 142.00 L 268.60 142.00 L 276.40 158.00 L 280.70 158.00 C283.07,158.00 285.00,157.62 285.00,157.16 C285.00,156.70 277.87,141.51 269.16,123.41 C257.03,98.20 252.86,90.43 251.36,90.21 C249.70,89.96 246.90,95.02 233.17,123.21 C224.25,141.52 216.96,156.84 216.98,157.25 ZM 844.50 158.63 C854.04,161.06 868.87,157.88 874.26,152.25 C881.61,144.57 881.71,133.44 874.47,126.74 C871.43,123.91 863.68,121.51 854.50,120.53 C845.47,119.57 838.30,117.27 836.55,114.76 C834.77,112.23 834.52,106.77 836.03,103.94 C838.59,99.15 850.12,96.10 858.50,97.99 C863.80,99.18 869.00,103.19 869.00,106.08 C869.00,109.08 876.56,110.32 877.64,107.50 C878.79,104.49 873.75,96.66 868.65,93.55 C864.38,90.94 862.66,90.53 854.36,90.17 C843.29,89.69 837.94,91.25 831.86,96.75 C827.44,100.74 825.53,106.25 826.52,112.15 C827.99,120.82 834.97,124.87 852.99,127.51 C859.32,128.43 865.26,129.60 866.19,130.10 C869.11,131.67 871.00,135.29 871.00,139.32 C871.00,148.94 856.49,154.91 843.90,150.47 C839.03,148.75 835.22,145.61 833.92,142.25 C833.22,140.43 832.27,140.00 829.02,140.00 C824.63,140.00 824.22,140.80 826.07,145.68 C828.29,151.56 834.86,156.17 844.50,158.63 ZM 655.00 91.00 L 655.00 158.00 L 664.00 158.00 L 664.00 129.17 L 671.61 128.46 C676.36,128.01 679.46,128.12 679.86,128.74 C680.21,129.28 684.98,136.09 690.45,143.87 L 700.41 158.00 L 705.76 158.00 C709.79,158.00 710.93,157.69 710.36,156.75 C709.94,156.06 704.82,148.98 698.98,141.00 C693.15,133.02 688.04,125.95 687.64,125.27 C687.22,124.57 688.01,122.41 689.44,120.30 C690.84,118.24 693.13,113.13 694.53,108.92 C697.42,100.24 699.97,97.29 705.00,96.82 C707.93,96.55 708.55,96.07 708.80,93.87 C709.05,91.74 708.60,91.12 706.43,90.57 C704.95,90.20 702.34,90.20 700.62,90.57 C692.78,92.26 689.94,95.65 686.58,107.32 C685.56,110.86 683.60,114.56 681.56,116.78 C678.51,120.11 677.62,120.49 671.55,121.00 C667.89,121.30 664.69,121.35 664.44,121.11 C664.20,120.87 664.00,113.99 664.00,105.83 L 664.00 91.00 L 655.00 91.00 ZM 448.58 157.05 C452.41,158.59 455.27,158.95 461.50,158.69 C473.02,158.20 479.72,154.23 484.64,145.00 C486.28,141.91 486.54,138.58 486.83,116.25 L 487.15 91.00 L 478.00 91.00 L 478.00 115.04 C478.00,137.16 477.84,139.39 475.99,143.03 C472.94,149.00 464.71,152.62 456.96,151.38 C451.94,150.57 447.27,147.52 444.27,143.08 C442.06,139.80 442.00,139.03 442.00,115.35 L 442.00 91.00 L 432.85 91.00 L 433.18 116.75 C433.53,145.15 433.58,145.38 440.25,151.78 C442.12,153.59 445.88,155.96 448.58,157.05 ZM 573.00 91.00 L 573.00 158.00 L 615.00 158.00 L 615.00 151.05 L 598.75 150.77 L 582.50 150.50 L 581.94 127.00 L 613.00 127.00 L 613.00 120.05 L 582.50 119.50 L 582.22 108.75 L 581.93 98.00 L 614.00 98.00 L 614.00 91.00 L 573.00 91.00 ZM 335.00 152.00 L 335.00 158.00 L 368.00 158.00 L 368.00 155.05 C368.00,152.16 367.88,152.09 362.25,151.80 L 356.50 151.50 L 355.97 98.00 L 367.00 98.00 L 367.00 91.00 L 335.87 91.00 L 336.19 94.25 C336.49,97.42 336.63,97.51 341.75,97.80 L 347.00 98.10 L 347.00 152.00 L 335.00 152.00 ZM 300.00 98.00 L 300.00 158.00 L 309.00 158.00 L 309.00 98.00 L 330.00 98.00 L 330.00 91.00 L 279.00 91.00 L 279.00 98.00 L 300.00 98.00 ZM 395.00 98.00 L 395.00 158.00 L 404.00 158.00 L 404.00 98.00 L 425.00 98.00 L 425.00 91.00 L 374.00 91.00 L 374.00 98.00 L 395.00 98.00 ZM 717.00 155.05 L 717.00 158.00 L 749.00 158.00 L 749.00 155.05 C749.00,152.16 748.88,152.09 743.25,151.80 L 737.50 151.50 L 737.23 124.80 L 736.97 98.10 L 742.73 97.80 C748.44,97.50 748.50,97.46 748.81,94.25 L 749.13 91.00 L 716.87 91.00 L 717.19 94.25 C717.50,97.46 717.56,97.50 723.27,97.80 L 729.03 98.10 L 728.77 124.80 L 728.50 151.50 L 722.75 151.80 C717.12,152.09 717.00,152.16 717.00,155.05 ZM 263.64 130.75 L 265.03 134.00 L 237.05 134.00 L 240.61 126.25 C242.57,121.99 245.54,115.46 247.22,111.75 C248.90,108.04 250.59,105.00 250.99,105.00 C251.60,105.00 259.44,120.95 263.64,130.75 Z" fill="rgba(79,70,228,1)"/>
<path d="M 98.33 220.15 C89.31,217.03 83.47,211.38 80.42,202.82 C79.02,198.88 66.00,66.29 66.00,55.93 C66.00,44.58 75.35,32.85 87.01,29.58 C100.96,25.66 115.23,32.20 120.93,45.11 C122.53,48.72 123.72,57.12 126.42,83.97 C128.32,102.80 130.06,118.39 130.28,118.61 C130.50,118.83 134.18,114.59 138.45,109.19 C147.59,97.63 153.24,93.39 161.56,91.85 C176.59,89.06 190.23,97.68 194.60,112.71 C197.58,122.95 194.99,131.04 184.65,143.74 C180.99,148.23 178.00,152.31 178.00,152.80 C178.00,153.29 181.94,156.85 186.76,160.70 C197.34,169.16 200.98,174.94 201.75,184.48 C202.50,193.77 200.07,200.10 193.09,207.05 C186.01,214.11 178.35,216.72 169.53,215.09 C162.44,213.78 160.06,212.49 149.91,204.47 L 141.50 197.82 L 137.52 202.66 C128.70,213.39 122.44,218.79 116.93,220.43 C110.11,222.45 104.77,222.37 98.33,220.15 ZM 96.96 177.38 C99.94,174.87 100.16,174.83 102.00,176.50 C104.59,178.84 109.00,178.72 111.00,176.25 C112.42,174.50 112.86,174.42 114.50,175.62 C117.17,177.57 120.74,177.33 122.68,175.06 C124.16,173.33 124.56,173.28 126.39,174.56 C130.67,177.56 141.46,175.85 146.06,171.45 L 148.76 168.85 L 151.34 171.43 C152.16,172.25 152.74,172.84 153.44,173.23 C155.19,174.21 157.64,173.95 166.37,173.03 C176.53,171.96 179.00,170.47 179.00,165.38 C179.00,162.45 178.30,161.60 172.81,157.87 L 166.63 153.67 L 168.92 152.09 C173.44,148.97 176.00,146.06 176.00,144.05 C176.00,141.43 172.59,138.00 170.00,138.00 C168.08,138.00 149.78,147.58 149.23,148.87 C147.92,151.97 147.21,152.18 144.42,150.36 C140.45,147.75 128.81,148.03 125.05,150.81 C122.74,152.51 122.15,152.59 120.51,151.38 C117.90,149.47 115.71,149.65 112.70,152.02 C111.13,153.25 109.90,153.64 109.51,153.02 C109.16,152.46 107.14,152.00 105.01,152.00 C102.04,152.00 100.67,152.60 99.11,154.58 L 97.08 157.17 L 96.60 154.83 C96.34,153.55 95.90,149.88 95.63,146.68 C95.35,143.48 94.60,140.22 93.94,139.43 C92.36,137.52 86.54,137.61 84.57,139.57 C82.66,141.48 82.66,142.56 84.49,161.50 C85.76,174.63 86.20,176.72 88.08,178.25 C91.04,180.67 93.32,180.44 96.96,177.38 ZM 110.27 145.00 C109.55,139.64 111.76,139.64 112.62,145.00 C112.97,147.20 113.65,149.00 114.13,149.00 C114.61,149.00 115.00,147.20 115.00,145.00 C115.00,139.98 116.77,139.72 117.19,144.67 C117.36,146.69 118.10,148.54 118.83,148.78 C119.84,149.11 120.09,148.16 119.86,144.94 C119.66,142.20 119.99,140.50 120.78,140.24 C121.59,139.97 122.00,141.02 122.00,143.35 C122.00,145.98 122.50,147.02 123.99,147.50 C125.09,147.84 126.54,147.78 127.23,147.36 C127.91,146.94 129.96,146.72 131.79,146.88 C133.61,147.03 135.83,146.56 136.71,145.83 C137.78,144.95 138.45,144.86 138.69,145.57 C139.11,146.83 145.00,146.19 145.00,144.89 C145.00,144.40 144.10,144.00 143.00,144.00 C141.90,144.00 141.00,143.55 141.00,143.00 C141.00,142.45 141.68,142.00 142.50,142.00 C143.32,142.00 144.00,141.55 144.00,141.00 C144.00,140.45 143.32,140.00 142.50,140.00 C141.68,140.00 141.00,139.55 141.00,139.00 C141.00,138.45 141.68,138.00 142.50,138.00 C143.32,138.00 144.00,137.50 144.00,136.88 C144.00,136.16 143.03,136.02 141.25,136.47 C139.74,136.85 137.15,137.12 135.50,137.06 C133.85,137.01 131.04,137.21 129.25,137.52 C126.31,138.04 126.00,138.42 126.00,141.60 C126.00,143.69 125.59,144.87 125.00,144.50 C124.45,144.16 124.00,142.53 124.00,140.87 L 124.00 137.86 L 118.25 138.48 C105.56,139.85 104.46,140.13 106.31,141.48 C107.24,142.17 108.00,144.05 108.00,145.69 C108.00,147.33 108.29,148.95 108.64,149.31 C110.05,150.72 110.78,148.79 110.27,145.00 ZM 103.95 148.74 C104.96,149.37 106.03,149.64 106.33,149.34 C107.21,148.45 102.71,140.00 101.36,140.00 C100.08,140.00 96.99,148.86 97.76,150.32 C98.00,150.76 99.08,150.33 100.16,149.36 C101.72,147.95 102.48,147.82 103.95,148.74 ZM 108.65 166.16 C107.09,164.44 107.11,164.21 108.88,162.61 C110.70,160.96 110.79,161.04 111.18,164.45 C111.65,168.44 111.07,168.84 108.65,166.16 ZM 151.00 162.05 C151.00,161.56 150.71,160.40 150.35,159.47 C149.79,158.00 149.99,157.92 151.85,158.92 C154.37,160.27 154.61,161.55 152.50,162.36 C151.68,162.68 151.00,162.54 151.00,162.05 Z" fill="rgba(250,241,75,1)"/>
<path d="M 844.50 158.63 C834.86,156.17 828.29,151.56 826.07,145.68 C824.22,140.80 824.63,140.00 829.02,140.00 C832.27,140.00 833.22,140.43 833.92,142.25 C835.22,145.61 839.03,148.75 843.90,150.47 C856.49,154.91 871.00,148.94 871.00,139.32 C871.00,135.29 869.11,131.67 866.19,130.10 C865.26,129.60 859.32,128.43 852.99,127.51 C834.97,124.87 827.99,120.82 826.52,112.15 C825.53,106.25 827.44,100.74 831.86,96.75 C837.94,91.25 843.29,89.69 854.36,90.17 C862.66,90.53 864.38,90.94 868.65,93.55 C873.75,96.66 878.79,104.49 877.64,107.50 C876.56,110.32 869.00,109.08 869.00,106.08 C869.00,103.19 863.80,99.18 858.50,97.99 C850.12,96.10 838.59,99.15 836.03,103.94 C834.52,106.77 834.77,112.23 836.55,114.76 C838.30,117.27 845.47,119.57 854.50,120.53 C863.68,121.51 871.43,123.91 874.47,126.74 C881.71,133.44 881.61,144.57 874.26,152.25 C868.87,157.88 854.04,161.06 844.50,158.63 ZM 448.58 157.05 C445.88,155.96 442.12,153.59 440.25,151.78 C433.58,145.38 433.53,145.15 433.18,116.75 L 432.85 91.00 L 437.43 91.00 L 442.00 91.00 L 442.00 115.35 C442.00,139.03 442.06,139.80 444.27,143.08 C447.27,147.52 451.94,150.57 456.96,151.38 C464.71,152.62 472.94,149.00 475.99,143.03 C477.84,139.39 478.00,137.16 478.00,115.04 L 478.00 91.00 L 482.58 91.00 L 487.15 91.00 L 486.83 116.25 C486.54,138.58 486.28,141.91 484.64,145.00 C479.72,154.23 473.02,158.20 461.50,158.69 C455.27,158.95 452.41,158.59 448.58,157.05 ZM 216.98 157.25 C216.96,156.84 224.25,141.52 233.17,123.21 C246.90,95.02 249.70,89.96 251.36,90.21 C252.86,90.43 257.03,98.20 269.16,123.41 C277.87,141.51 285.00,156.70 285.00,157.16 C285.00,157.62 283.07,158.00 280.70,158.00 L 276.40 158.00 L 272.50 150.00 L 268.60 142.00 L 251.02 142.00 L 233.44 142.00 L 229.80 150.00 L 226.17 158.00 L 221.58 158.00 C219.06,158.00 216.99,157.66 216.98,157.25 ZM 263.64 130.75 C259.44,120.95 251.60,105.00 250.99,105.00 C250.59,105.00 248.90,108.04 247.22,111.75 C245.54,115.46 242.57,121.99 240.61,126.25 L 237.05 134.00 L 251.04 134.00 L 265.03 134.00 L 263.64 130.75 ZM 300.00 128.00 L 300.00 98.00 L 289.50 98.00 L 279.00 98.00 L 279.00 94.50 L 279.00 91.00 L 304.50 91.00 L 330.00 91.00 L 330.00 94.50 L 330.00 98.00 L 319.50 98.00 L 309.00 98.00 L 309.00 128.00 L 309.00 158.00 L 304.50 158.00 L 300.00 158.00 L 300.00 128.00 ZM 335.00 155.00 L 335.00 152.00 L 341.00 152.00 L 347.00 152.00 L 347.00 125.05 L 347.00 98.10 L 341.75 97.80 C336.63,97.51 336.49,97.42 336.19,94.25 L 335.87 91.00 L 351.44 91.00 L 367.00 91.00 L 367.00 94.50 L 367.00 98.00 L 361.48 98.00 L 355.97 98.00 L 356.23 124.75 L 356.50 151.50 L 362.25 151.80 C367.88,152.09 368.00,152.16 368.00,155.05 L 368.00 158.00 L 351.50 158.00 L 335.00 158.00 L 335.00 155.00 ZM 395.00 128.00 L 395.00 98.00 L 384.50 98.00 L 374.00 98.00 L 374.00 94.50 L 374.00 91.00 L 399.50 91.00 L 425.00 91.00 L 425.00 94.50 L 425.00 98.00 L 414.50 98.00 L 404.00 98.00 L 404.00 128.00 L 404.00 158.00 L 399.50 158.00 L 395.00 158.00 L 395.00 128.00 ZM 502.00 124.42 L 502.00 90.84 L 520.25 91.17 C537.82,91.50 538.69,91.61 543.62,94.21 C559.48,102.56 565.53,123.33 557.09,140.47 C553.34,148.09 547.84,153.17 540.29,155.99 C535.72,157.70 532.50,158.00 518.46,158.00 L 502.00 158.00 L 502.00 124.42 ZM 532.99 149.91 C539.92,148.42 545.88,143.71 549.25,137.06 C554.47,126.78 552.27,112.20 544.38,104.80 C539.38,100.12 535.17,99.00 522.53,99.00 L 511.00 99.00 L 511.00 124.33 C511.00,138.27 511.30,149.97 511.67,150.33 C512.73,151.40 527.42,151.10 532.99,149.91 ZM 573.00 124.50 L 573.00 91.00 L 593.50 91.00 L 614.00 91.00 L 614.00 94.50 L 614.00 98.00 L 597.97 98.00 L 581.93 98.00 L 582.22 108.75 L 582.50 119.50 L 597.75 119.78 L 613.00 120.05 L 613.00 123.53 L 613.00 127.00 L 597.47 127.00 L 581.94 127.00 L 582.22 138.75 L 582.50 150.50 L 598.75 150.77 L 615.00 151.05 L 615.00 154.52 L 615.00 158.00 L 594.00 158.00 L 573.00 158.00 L 573.00 124.50 ZM 655.00 124.50 L 655.00 91.00 L 659.50 91.00 L 664.00 91.00 L 664.00 105.83 C664.00,113.99 664.20,120.87 664.44,121.11 C664.69,121.35 667.89,121.30 671.55,121.00 C677.62,120.49 678.51,120.11 681.56,116.78 C683.60,114.56 685.56,110.86 686.58,107.32 C689.94,95.65 692.78,92.26 700.62,90.57 C702.34,90.20 704.95,90.20 706.43,90.57 C708.60,91.12 709.05,91.74 708.80,93.87 C708.55,96.07 707.93,96.55 705.00,96.82 C699.97,97.29 697.42,100.24 694.53,108.92 C693.13,113.13 690.84,118.24 689.44,120.30 C688.01,122.41 687.22,124.57 687.64,125.27 C688.04,125.95 693.15,133.02 698.98,141.00 C704.82,148.98 709.94,156.06 710.36,156.75 C710.93,157.69 709.79,158.00 705.76,158.00 L 700.41 158.00 L 690.45 143.87 C684.98,136.09 680.21,129.28 679.86,128.74 C679.46,128.12 676.36,128.01 671.61,128.46 L 664.00 129.17 L 664.00 143.59 L 664.00 158.00 L 659.50 158.00 L 655.00 158.00 L 655.00 124.50 ZM 717.00 155.05 C717.00,152.16 717.12,152.09 722.75,151.80 L 728.50 151.50 L 728.77 124.80 L 729.03 98.10 L 723.27 97.80 C717.56,97.50 717.50,97.46 717.19,94.25 L 716.87 91.00 L 733.00 91.00 L 749.13 91.00 L 748.81 94.25 C748.50,97.46 748.44,97.50 742.73,97.80 L 736.97 98.10 L 737.23 124.80 L 737.50 151.50 L 743.25 151.80 C748.88,152.09 749.00,152.16 749.00,155.05 L 749.00 158.00 L 733.00 158.00 L 717.00 158.00 L 717.00 155.05 ZM 759.00 124.58 L 759.00 91.00 L 774.82 91.00 C792.80,91.00 797.87,92.07 805.03,97.36 C808.02,99.57 810.72,102.87 812.99,107.10 C816.00,112.74 816.46,114.57 816.80,122.50 C817.12,130.01 816.82,132.48 814.96,137.42 C812.26,144.58 806.36,151.24 799.54,154.83 C794.73,157.37 793.70,157.50 776.75,157.82 L 759.00 158.16 L 759.00 124.58 ZM 794.57 148.25 C799.77,145.56 805.38,139.35 807.10,134.38 C811.14,122.68 806.83,108.26 797.57,102.53 C792.91,99.65 792.05,99.48 780.33,99.17 L 768.00 98.84 L 768.00 125.04 L 768.00 151.25 L 779.25 150.80 C788.10,150.44 791.37,149.90 794.57,148.25 Z" fill="rgba(252,252,254,1)"/>
</g>
</svg>